<svg width="167" height="49" viewBox="0 0 167 49" fill="none" xmlns="http://www.w3.org/2000/svg">
<g clip-path="url(#clip0_458_5)">
<path d="M155.659 19.078H148.953C148.09 19.078 147.391 18.3784 147.391 17.5155V9.70308C147.391 8.84015 148.09 8.14058 148.953 8.14058H165.047C165.91 8.14058 166.609 8.84015 166.609 9.70308V17.5155C166.609 18.3784 165.91 19.078 165.047 19.078H163.697" fill="white"/>
<path d="M162.04 18.9111L161.089 19.8624L163.068 21.8416L161.3 23.6093L159.321 21.6302L158.611 22.3397L157.356 17.6561L162.04 18.9111Z" fill="#4C8FF5"/>
<path d="M165.047 7.74995H158.589C158.374 7.74995 158.199 7.92484 158.199 8.14058C158.199 8.35632 158.374 8.5312 158.589 8.5312H165.047C165.693 8.5312 166.219 9.05691 166.219 9.70308V17.5155C166.219 18.1617 165.693 18.6874 165.047 18.6874H163.697C163.482 18.6874 163.307 18.8622 163.307 19.078C163.307 19.2937 163.482 19.4686 163.697 19.4686H165.047C166.124 19.4686 167 18.5924 167 17.5155V9.70308C167 8.62612 166.124 7.74995 165.047 7.74995Z" fill="white"/>
<path d="M155.659 18.6874H148.953C148.307 18.6874 147.781 18.1617 147.781 17.5155V9.70308C147.781 9.05691 148.307 8.5312 148.953 8.5312H155.464C155.679 8.5312 155.854 8.35632 155.854 8.14058C155.854 7.92484 155.679 7.74995 155.464 7.74995H148.953C147.876 7.74995 147 8.62612 147 9.70308V17.5155C147 18.5924 147.876 19.4686 148.953 19.4686H155.659C155.875 19.4686 156.05 19.2937 156.05 19.078C156.05 18.8622 155.875 18.6874 155.659 18.6874Z" fill="white"/>
<path d="M158.564 14.6112V11.2656C158.564 11.0498 158.389 10.8749 158.173 10.8749C157.957 10.8749 157.782 11.0498 157.782 11.2656V14.6112C157.782 15.1357 157.356 15.5624 156.831 15.5624C156.307 15.5624 155.88 15.1357 155.88 14.6112V11.2656C155.88 11.0498 155.705 10.8749 155.489 10.8749C155.274 10.8749 155.099 11.0498 155.099 11.2656V14.6112C155.099 15.5665 155.876 16.3436 156.831 16.3436C157.786 16.3436 158.564 15.5665 158.564 14.6112Z" fill="#4C8FF5"/>
<path d="M153.445 12.4374C153.445 11.5758 152.744 10.8749 151.882 10.8749H150.303C150.087 10.8749 149.912 11.0498 149.912 11.2655V15.953C149.912 16.1687 150.087 16.3436 150.303 16.3436H151.883C152.744 16.3436 153.445 15.6427 153.445 14.7811C153.445 14.3148 153.239 13.8958 152.914 13.6092C153.239 13.3228 153.445 12.9037 153.445 12.4374ZM152.664 14.7812C152.664 15.2119 152.313 15.5624 151.882 15.5624H150.693V13.9999H151.883C152.313 13.9999 152.664 14.3504 152.664 14.7812ZM150.693 13.2187V11.6562H151.883C152.313 11.6562 152.664 12.0066 152.664 12.4374C152.664 12.8682 152.313 13.2187 151.883 13.2187H150.693Z" fill="#4C8FF5"/>
<path d="M162.124 16.3436C162.34 16.3436 162.515 16.1688 162.515 15.953V14.4076L164.045 11.4448C164.143 11.2531 164.068 11.0175 163.877 10.9185C163.685 10.8195 163.449 10.8947 163.35 11.0863L162.124 13.4613L160.898 11.0863C160.799 10.8946 160.563 10.8195 160.371 10.9185C160.18 11.0175 160.104 11.2531 160.203 11.4448L161.733 14.4076V15.953C161.733 16.1688 161.908 16.3436 162.124 16.3436Z" fill="#4C8FF5"/>
<path d="M157 7.11394C157.216 7.11394 157.391 6.93906 157.391 6.72332V4.39062C157.391 4.17488 157.216 4 157 4C156.785 4 156.61 4.17488 156.61 4.39062V6.72335C156.61 6.93906 156.785 7.11394 157 7.11394Z" fill="white"/>
<path d="M159.051 7.34129C159.151 7.34129 159.251 7.30316 159.327 7.22687L160.278 6.27578C160.431 6.12324 160.431 5.8759 160.278 5.72332C160.126 5.57078 159.878 5.57078 159.726 5.72332L158.775 6.67441C158.622 6.82695 158.622 7.0743 158.775 7.22687C158.851 7.30316 158.951 7.34129 159.051 7.34129Z" fill="white"/>
<path d="M154.674 7.22503C154.75 7.30132 154.85 7.33945 154.95 7.33945C155.05 7.33945 155.15 7.30132 155.226 7.22503C155.379 7.0725 155.379 6.82515 155.226 6.67257L154.275 5.72152C154.122 5.56898 153.875 5.56898 153.723 5.72152C153.57 5.87406 153.57 6.1214 153.723 6.27398L154.674 7.22503Z" fill="white"/>
<path d="M161.641 19.8624L162.316 19.1873C162.415 19.0886 162.453 18.9448 162.417 18.81C162.381 18.6752 162.276 18.5699 162.141 18.5338L157.458 17.2788C157.323 17.2426 157.179 17.2813 157.08 17.3799C156.982 17.4786 156.943 17.6224 156.979 17.7573L158.234 22.4408C158.27 22.5756 158.376 22.6809 158.51 22.717C158.645 22.7532 158.789 22.7146 158.888 22.6159L159.321 22.1826L161.024 23.8856C161.1 23.9618 161.2 24 161.3 24C161.4 24 161.5 23.9618 161.576 23.8856L163.344 22.1178C163.497 21.9653 163.497 21.7179 163.344 21.5654L161.641 19.8624ZM161.3 23.0569L159.597 21.354C159.521 21.2777 159.421 21.2395 159.321 21.2395C159.221 21.2395 159.121 21.2777 159.045 21.354L158.814 21.5851L157.909 18.2086L161.285 19.1133L160.812 19.5863C160.66 19.7388 160.66 19.9861 160.812 20.1387L162.515 21.8417L161.3 23.0569Z" fill="white"/>
<path d="M156.988 8.5312C157.091 8.5312 157.191 8.48941 157.264 8.41675C157.337 8.34409 157.378 8.24331 157.378 8.14058C157.378 8.03784 157.337 7.93706 157.264 7.86441C157.191 7.79175 157.091 7.74995 156.988 7.74995C156.885 7.74995 156.784 7.79175 156.711 7.86441C156.639 7.93706 156.597 8.03784 156.597 8.14058C156.597 8.24331 156.639 8.34409 156.711 8.41675C156.784 8.48941 156.885 8.5312 156.988 8.5312Z" fill="white"/>
</g>
<path d="M16.151 9.85L13.609 12.64C13.1957 12.082 12.6067 11.6273 11.842 11.276C11.098 10.9247 10.3437 10.749 9.579 10.749C8.56633 10.749 7.66733 11.0073 6.882 11.524C6.09667 12.02 5.704 12.764 5.704 13.756C5.704 14.252 5.78667 14.6757 5.952 15.027C6.138 15.3577 6.448 15.6573 6.882 15.926C7.33667 16.1947 7.76033 16.4013 8.153 16.546C8.54567 16.6907 9.12433 16.887 9.889 17.135C10.6123 17.3623 11.2013 17.5587 11.656 17.724C12.1313 17.8893 12.6893 18.158 13.33 18.53C13.9913 18.8813 14.508 19.2637 14.88 19.677C15.2727 20.0903 15.6033 20.638 15.872 21.32C16.1613 21.9813 16.306 22.7253 16.306 23.552C16.306 25.8047 15.5413 27.5407 14.012 28.76C12.5033 29.9587 10.602 30.558 8.308 30.558C6.84067 30.558 5.425 30.2893 4.061 29.752C2.71767 29.194 1.62233 28.419 0.775 27.427L3.565 24.823C4.10233 25.5463 4.81533 26.1353 5.704 26.59C6.59267 27.024 7.48133 27.241 8.37 27.241C9.424 27.241 10.3437 26.9723 11.129 26.435C11.935 25.8977 12.338 25.0813 12.338 23.986C12.338 23.614 12.2863 23.2833 12.183 22.994C12.0797 22.684 11.8833 22.405 11.594 22.157C11.3253 21.909 11.0877 21.7127 10.881 21.568C10.6743 21.4027 10.3023 21.227 9.765 21.041C9.24833 20.8343 8.87633 20.6897 8.649 20.607C8.42167 20.5243 7.967 20.3797 7.285 20.173C6.49967 19.925 5.828 19.6667 5.27 19.398C4.712 19.1293 4.13333 18.7677 3.534 18.313C2.95533 17.8377 2.511 17.2383 2.201 16.515C1.891 15.771 1.736 14.9133 1.736 13.942C1.736 11.8547 2.52133 10.2633 4.092 9.168C5.68333 8.052 7.57433 7.494 9.765 7.494C10.9223 7.494 12.0693 7.70067 13.206 8.114C14.3633 8.50667 15.345 9.08533 16.151 9.85ZM28.3098 14.686C30.1284 14.686 31.4924 15.275 32.4018 16.453C33.3318 17.6103 33.7968 19.026 33.7968 20.7V30H30.0768V21.816C30.0768 19.1913 29.1571 17.879 27.3178 17.879C26.2018 17.879 25.3338 18.282 24.7138 19.088C24.1144 19.8733 23.8148 20.8033 23.8148 21.878V30H20.0948V6.564H23.8148V17.197H23.8768C24.2074 16.515 24.7654 15.926 25.5508 15.43C26.3568 14.934 27.2764 14.686 28.3098 14.686ZM37.2683 22.498C37.2683 20.204 38.0433 18.3337 39.5933 16.887C41.1433 15.4197 43.0653 14.686 45.3593 14.686C47.6533 14.686 49.5753 15.4197 51.1253 16.887C52.6753 18.3337 53.4503 20.204 53.4503 22.498C53.4503 24.8127 52.665 26.714 51.0943 28.202C49.5443 29.69 47.6326 30.434 45.3593 30.434C43.086 30.434 41.164 29.69 39.5933 28.202C38.0433 26.714 37.2683 24.8127 37.2683 22.498ZM42.1663 19.15C41.4223 20.1007 41.0503 21.2167 41.0503 22.498C41.0503 23.7793 41.4223 24.9057 42.1663 25.877C42.9103 26.8483 43.9746 27.334 45.3593 27.334C46.744 27.334 47.8083 26.8483 48.5523 25.877C49.2963 24.9057 49.6683 23.7793 49.6683 22.498C49.6683 21.2167 49.2963 20.1007 48.5523 19.15C47.8083 18.1993 46.744 17.724 45.3593 17.724C43.9746 17.724 42.9103 18.1993 42.1663 19.15ZM57.0572 15.12H60.6222V17.197H60.7152C61.1492 16.515 61.8002 15.926 62.6682 15.43C63.5569 14.934 64.6212 14.686 65.8612 14.686C67.9692 14.686 69.6949 15.43 71.0382 16.918C72.4022 18.406 73.0842 20.266 73.0842 22.498C73.0842 24.73 72.4125 26.6107 71.0692 28.14C69.7465 29.6693 67.9795 30.434 65.7682 30.434C64.7349 30.434 63.7739 30.217 62.8852 29.783C61.9965 29.349 61.3145 28.76 60.8392 28.016H60.7772V37.44H57.0572V15.12ZM68.1552 25.877C68.9199 24.9057 69.3022 23.7793 69.3022 22.498C69.3022 21.2167 68.9199 20.1007 68.1552 19.15C67.4112 18.1993 66.3675 17.724 65.0242 17.724C63.7222 17.724 62.6682 18.22 61.8622 19.212C61.0562 20.204 60.6532 21.32 60.6532 22.56C60.6532 23.8 61.0562 24.9057 61.8622 25.877C62.6682 26.8483 63.7222 27.334 65.0242 27.334C66.3675 27.334 67.4112 26.8483 68.1552 25.877ZM87.2454 16.949L84.8274 19.088C84.476 18.6333 84.0111 18.251 83.4324 17.941C82.8537 17.631 82.2337 17.476 81.5724 17.476C80.911 17.476 80.3427 17.6103 79.8674 17.879C79.4127 18.1477 79.1854 18.5507 79.1854 19.088C79.1854 19.6047 79.423 19.987 79.8984 20.235C80.3737 20.483 81.2107 20.7517 82.4094 21.041C83.05 21.1857 83.6184 21.3613 84.1144 21.568C84.6104 21.754 85.1064 22.0123 85.6024 22.343C86.1191 22.6737 86.5117 23.1077 86.7804 23.645C87.0697 24.1823 87.2144 24.792 87.2144 25.474C87.2144 27.1687 86.6254 28.419 85.4474 29.225C84.2901 30.031 82.8124 30.434 81.0144 30.434C79.8364 30.434 78.6997 30.217 77.6044 29.783C76.509 29.349 75.61 28.7497 74.9074 27.985L77.3564 25.691C78.307 26.931 79.578 27.551 81.1694 27.551C81.81 27.551 82.368 27.4063 82.8434 27.117C83.3187 26.8277 83.5564 26.3833 83.5564 25.784C83.5564 25.2053 83.298 24.7817 82.7814 24.513C82.2854 24.2237 81.407 23.9343 80.1464 23.645C78.803 23.3143 77.7284 22.8493 76.9224 22.25C76.137 21.63 75.7444 20.6897 75.7444 19.429C75.7444 17.879 76.323 16.701 77.4804 15.895C78.6377 15.089 80.0327 14.686 81.6654 14.686C82.7814 14.686 83.8457 14.8823 84.8584 15.275C85.8711 15.6677 86.6667 16.2257 87.2454 16.949ZM90.4488 30V15.12H93.9828V17.507H94.0448C94.3961 16.7217 94.9851 16.0603 95.8118 15.523C96.6591 14.965 97.6098 14.686 98.6638 14.686C100.482 14.686 101.846 15.275 102.756 16.453C103.686 17.6103 104.151 19.026 104.151 20.7V30H100.431V21.754C100.431 19.1087 99.5008 17.786 97.6408 17.786C96.5248 17.786 95.6671 18.189 95.0678 18.995C94.4685 19.7803 94.1688 20.7207 94.1688 21.816V30H90.4488ZM117.73 30V28.109H117.637C117.265 28.7703 116.655 29.318 115.808 29.752C114.981 30.1653 114.051 30.372 113.018 30.372C111.592 30.372 110.3 30 109.143 29.256C108.006 28.4913 107.438 27.3237 107.438 25.753C107.438 24.9057 107.644 24.172 108.058 23.552C108.492 22.9113 109.029 22.4153 109.67 22.064C110.31 21.7127 111.106 21.4337 112.057 21.227C113.028 20.9997 113.937 20.855 114.785 20.793C115.653 20.731 116.614 20.7 117.668 20.7V20.328C117.668 19.46 117.347 18.7883 116.707 18.313C116.066 17.8377 115.25 17.6 114.258 17.6C112.687 17.6 111.333 18.1683 110.197 19.305L108.275 17.042C109.969 15.4713 112.067 14.686 114.568 14.686C115.849 14.686 116.934 14.872 117.823 15.244C118.732 15.5953 119.424 16.0913 119.9 16.732C120.375 17.352 120.706 18.0133 120.892 18.716C121.098 19.398 121.202 20.142 121.202 20.948V30H117.73ZM117.668 23.738V23.211H116.831C113.049 23.211 111.158 24.0377 111.158 25.691C111.158 26.3523 111.406 26.8277 111.902 27.117C112.418 27.4063 113.038 27.551 113.762 27.551C115.022 27.551 115.983 27.2203 116.645 26.559C117.327 25.877 117.668 24.9367 117.668 23.738ZM125.598 6.564H129.318V17.011H129.411C130.651 15.461 132.314 14.686 134.402 14.686C136.51 14.686 138.235 15.43 139.579 16.918C140.943 18.406 141.625 20.266 141.625 22.498C141.625 24.73 140.953 26.6107 139.61 28.14C138.287 29.6693 136.52 30.434 134.309 30.434C133.255 30.434 132.263 30.2067 131.333 29.752C130.403 29.2767 129.69 28.6153 129.194 27.768H129.132V30H125.598V6.564ZM136.696 25.877C137.46 24.9057 137.843 23.7793 137.843 22.498C137.843 21.2167 137.46 20.1007 136.696 19.15C135.952 18.1993 134.908 17.724 133.565 17.724C132.263 17.724 131.209 18.22 130.403 19.212C129.597 20.204 129.194 21.32 129.194 22.56C129.194 23.8 129.597 24.9057 130.403 25.877C131.209 26.8483 132.263 27.334 133.565 27.334C134.908 27.334 135.952 26.8483 136.696 25.877Z" fill="white"/>
<path d="M0.602 47V42.044H1.295V45.971H1.309L3.808 42.044H4.571V47H3.878V43.073H3.864L1.365 47H0.602ZM5.8818 47V42.044H6.5748V44.116H9.0878V42.044H9.7808V47H9.0878V44.732H6.5748V47H5.8818ZM12.1294 47V42.653H10.5404V42.044H14.4114V42.653H12.8224V47H12.1294ZM15.1768 47V42.044H18.3548V42.653H15.8698V44.137H18.2078V44.732H15.8698V46.384H18.4598V47H15.1768ZM19.4859 47V42.044H20.9979C21.5532 42.044 21.9872 42.1583 22.2999 42.387C22.6125 42.611 22.7689 42.9563 22.7689 43.423C22.7689 43.899 22.6032 44.2513 22.2719 44.48C21.9452 44.7087 21.5089 44.823 20.9629 44.823H20.1789V47H19.4859ZM20.1789 44.235H20.9139C21.6839 44.235 22.0689 43.9643 22.0689 43.423C22.0689 42.8957 21.6885 42.632 20.9279 42.632H20.1789V44.235ZM23.754 47V42.044H24.447V44.116H26.96V42.044H27.653V47H26.96V44.732H24.447V47H23.754ZM28.9586 47V42.044H32.1366V42.653H29.6516V44.137H31.9896V44.732H29.6516V46.384H32.2416V47H28.9586ZM34.3107 47V42.653H32.7217V42.044H36.5927V42.653H35.0037V47H34.3107ZM38.0591 45.012V45.572H36.4351V45.012H38.0591ZM39.0763 47V42.044H40.1543L41.6383 45.852H41.6523L43.1153 42.044H44.1933V47H43.5003V42.856H43.4863L41.8413 47H41.4003L39.7623 42.856H39.7483V47H39.0763ZM44.9375 47L47.0865 42.044H47.7165L49.8445 47H49.0605L48.5565 45.782H46.2045L45.7075 47H44.9375ZM46.4495 45.173H48.3045L47.3805 42.849L46.4495 45.173ZM50.5861 47V42.044H53.4771V42.653H51.2791V47H50.5861ZM53.1114 47L55.2604 42.044H55.8904L58.0184 47H57.2344L56.7304 45.782H54.3784L53.8814 47H53.1114ZM54.6234 45.173H56.4784L55.5544 42.849L54.6234 45.173ZM60.111 47.126C59.3643 47.126 58.788 46.8833 58.382 46.398L58.893 45.943C59.173 46.3397 59.572 46.538 60.09 46.538C60.412 46.538 60.678 46.454 60.888 46.286C61.098 46.1133 61.203 45.8823 61.203 45.593C61.203 45.0143 60.7806 44.725 59.936 44.725H59.614V44.137H59.943C60.6896 44.137 61.063 43.8547 61.063 43.29C61.063 43.0567 60.9766 42.8677 60.804 42.723C60.6313 42.5737 60.4003 42.499 60.111 42.499C59.6443 42.499 59.2873 42.66 59.04 42.982L58.571 42.555C58.9116 42.1303 59.4226 41.918 60.104 41.918C60.6033 41.918 61 42.037 61.294 42.275C61.588 42.5083 61.735 42.835 61.735 43.255C61.735 43.5397 61.6533 43.7823 61.49 43.983C61.3266 44.1837 61.1166 44.319 60.86 44.389V44.403C61.168 44.4683 61.42 44.6083 61.616 44.823C61.8166 45.0377 61.917 45.3037 61.917 45.621C61.917 46.083 61.7396 46.4493 61.385 46.72C61.035 46.9907 60.6103 47.126 60.111 47.126ZM62.9939 47V42.044H63.6869V45.971H63.7009L66.1999 42.044H66.9629V47H66.2699V43.073H66.2559L63.7569 47H62.9939ZM68.2737 47V42.044H68.9667V44.116H71.4797V42.044H72.1727V47H71.4797V44.732H68.9667V47H68.2737ZM73.4783 47V42.044H74.1713V44.102H74.9693C75.5246 44.102 75.968 44.2233 76.2993 44.466C76.6306 44.7087 76.7963 45.0703 76.7963 45.551C76.7963 46.027 76.6306 46.3887 76.2993 46.636C75.9726 46.8787 75.534 47 74.9833 47H73.4783ZM74.1713 46.412H74.9133C75.702 46.412 76.0963 46.1273 76.0963 45.558C76.0963 45.278 75.9936 45.0633 75.7883 44.914C75.583 44.7647 75.2913 44.69 74.9133 44.69H74.1713V46.412ZM77.5173 47V42.044H78.2103V47H77.5173ZM83.3879 43.038V44.592H84.9419V45.166H83.3879V46.72H82.8139V45.166H81.2599V44.592H82.8139V43.038H83.3879ZM87.994 47V42.044H91.865V47H91.172V42.653H88.687V47H87.994ZM95.5373 47.126C94.7813 47.126 94.1559 46.881 93.6613 46.391C93.1666 45.901 92.9193 45.2757 92.9193 44.515C92.9193 43.7497 93.1643 43.1267 93.6543 42.646C94.1489 42.1607 94.7766 41.918 95.5373 41.918C96.2979 41.918 96.9256 42.1607 97.4203 42.646C97.9196 43.1267 98.1693 43.7497 98.1693 44.515C98.1693 45.2757 97.9196 45.901 97.4203 46.391C96.9256 46.881 96.2979 47.126 95.5373 47.126ZM95.5373 46.503C96.1019 46.503 96.5569 46.314 96.9023 45.936C97.2476 45.5533 97.4203 45.0797 97.4203 44.515C97.4203 43.955 97.2476 43.4837 96.9023 43.101C96.5569 42.7183 96.1019 42.527 95.5373 42.527C94.9819 42.527 94.5316 42.7183 94.1863 43.101C93.8409 43.4837 93.6683 43.955 93.6683 44.515C93.6683 45.0797 93.8409 45.5533 94.1863 45.936C94.5316 46.314 94.9819 46.503 95.5373 46.503ZM101.576 47.126C100.815 47.126 100.19 46.881 99.6997 46.391C99.2097 45.901 98.9647 45.2757 98.9647 44.515C98.9647 43.7497 99.2144 43.1267 99.7137 42.646C100.213 42.1607 100.843 41.918 101.604 41.918C101.958 41.918 102.299 41.9857 102.626 42.121C102.952 42.2563 103.204 42.4453 103.382 42.688L102.836 43.108C102.714 42.9353 102.542 42.7953 102.318 42.688C102.094 42.5807 101.856 42.527 101.604 42.527C101.044 42.527 100.589 42.7183 100.239 43.101C99.8934 43.4837 99.7207 43.955 99.7207 44.515C99.7207 45.0843 99.891 45.5603 100.232 45.943C100.572 46.321 101.023 46.51 101.583 46.51C102.166 46.51 102.609 46.2907 102.913 45.852L103.466 46.23C103.027 46.8273 102.397 47.126 101.576 47.126ZM105.321 47V42.653H103.732V42.044H107.603V42.653H106.014V47H105.321ZM107.384 47L109.533 42.044H110.163L112.291 47H111.507L111.003 45.782H108.651L108.154 47H107.384ZM108.896 45.173H110.751L109.827 42.849L108.896 45.173ZM113.033 47V42.044H114.741C115.17 42.044 115.536 42.1443 115.84 42.345C116.143 42.5457 116.295 42.863 116.295 43.297C116.295 43.563 116.215 43.7917 116.057 43.983C115.903 44.1743 115.693 44.305 115.427 44.375V44.389C115.753 44.4263 116.017 44.5523 116.218 44.767C116.423 44.9817 116.526 45.257 116.526 45.593C116.526 46.0503 116.351 46.4003 116.001 46.643C115.655 46.881 115.21 47 114.664 47H113.033ZM113.726 46.412H114.594C114.813 46.412 115.009 46.3887 115.182 46.342C115.354 46.2953 115.504 46.2067 115.63 46.076C115.76 45.9407 115.826 45.768 115.826 45.558C115.826 45.0027 115.436 44.725 114.657 44.725H113.726V46.412ZM113.726 44.137H114.629C114.913 44.137 115.147 44.074 115.329 43.948C115.511 43.8173 115.602 43.6237 115.602 43.367C115.602 42.8723 115.24 42.625 114.517 42.625H113.726V44.137ZM123.775 48.176V47H117.629V42.044H118.322V46.384H120.394V42.044H121.087V46.384H123.159V42.044H123.852V46.384H124.405V48.176H123.775ZM125.322 47V42.044H126.015V45.971H126.029L128.528 42.044H129.291V47H128.598V43.073H128.584L126.085 47H125.322ZM130.602 47V42.044H131.295V44.228H131.309L133.521 42.044H134.48L132.072 44.312L134.627 47H133.633L131.309 44.438H131.295V47H130.602ZM135.321 47V42.044H136.014V45.971H136.028L138.527 42.044H139.29V47H138.597V43.073H138.583L136.084 47H135.321Z" fill="white"/>
<path d="M75 28L140.5 17.5L75.5 30L75 28Z" fill="#4C8FF5" stroke="#4C8FF5"/>
<defs>
<clipPath id="clip0_458_5">
<rect width="20" height="20" fill="white" transform="translate(147 4)"/>
</clipPath>
</defs>
</svg>
